Coordinates
version=1
nRows=5
nColumns=40
inDegrees=yes

Units are S.I. units (second, meters, Newtons, ...)
If the header above contains a line with 'inDegrees', this indicates whether rotational values are in degrees (yes) or radians (no).

endheader
time	pelvis_tilt	pelvis_list	pelvis_rotation	pelvis_tx	pelvis_ty	pelvis_tz	hip_flexion_r	hip_adduction_r	hip_rotation_r	knee_angle_r	knee_angle_r_beta	ankle_angle_r	subtalar_angle_r	mtp_angle_r	hip_flexion_l	hip_adduction_l	hip_rotation_l	knee_angle_l	knee_angle_l_beta	ankle_angle_l	subtalar_angle_l	mtp_angle_l	lumbar_extension	lumbar_bending	lumbar_rotation	arm_flex_r	arm_add_r	arm_rot_r	elbow_flex_r	pro_sup_r	wrist_flex_r	wrist_dev_r	arm_flex_l	arm_add_l	arm_rot_l	elbow_flex_l	pro_sup_l	wrist_flex_l	wrist_dev_l
      4.96500000	    -27.73899972	     13.35444118	     -3.25925875	     -0.30126982	      0.86131468	     -1.05472572	     32.06398572	    -20.18236460	      2.36949340	    114.10258532	      1.99146580	    -20.66232191	      0.00000000	      0.00000000	     67.54709655	      7.88646557	    -19.57563512	     65.38568136	      1.14119542	     25.90794875	      0.00000000	      0.00000000	     -5.03629047	    -19.96576590	     -0.41341522	     89.95188581	     -8.40700485	     15.17409847	     41.63587348	     86.29332365	      0.00000000	      0.00000000	     89.96541472	    -13.75781154	     18.76153134	     48.16541959	     85.68251770	      0.00000000	      0.00000000
      4.97000000	    -27.67573124	     13.31149390	     -3.29588505	     -0.30108754	      0.86292394	     -1.05469238	     32.04285326	    -20.12045201	      2.32397409	    114.04634595	      1.99048424	    -20.61748992	      0.00000000	      0.00000000	     67.29288628	      7.89021350	    -19.53079289	     65.06236736	      1.13555253	     25.75120595	      0.00000000	      0.00000000	     -5.01949800	    -19.91326580	     -0.37680188	     89.95169740	     -8.39222757	     15.20125719	     41.58185248	     86.29512519	      0.00000000	      0.00000000	     89.96536252	    -13.77397178	     18.83210141	     48.14193593	     85.68516853	      0.00000000	      0.00000000
      4.97500000	    -27.58049922	     13.27928677	     -3.33274378	     -0.30085526	      0.86444702	     -1.05464417	     32.01004629	    -20.12624174	      2.24792790	    114.02603875	      1.99012981	    -20.62030024	      0.00000000	      0.00000000	     67.01263492	      7.89921580	    -19.50367083	     64.76864035	      1.13042603	     25.60934348	      0.00000000	      0.00000000	     -5.02091658	    -19.88353558	     -0.36105046	     89.95168810	     -8.39001417	     15.22813035	     41.56526856	     86.29568771	      0.00000000	      0.00000000	     89.96525706	    -13.76790363	     18.87363939	     48.08859134	     85.68614686	      0.00000000	      0.00000000
      4.98000000	    -27.48591118	     13.20708333	     -3.33436099	     -0.30064704	      0.86608351	     -1.05463491	     31.92504106	    -20.08205324	      2.17479904	    114.01550087	      1.98994589	    -20.65678441	      0.00000000	      0.00000000	     66.71127388	      7.88631935	    -19.48675842	     64.46671074	      1.12515636	     25.45992697	      0.00000000	      0.00000000	     -5.04940818	    -19.80493053	     -0.36222532	     89.95169725	     -8.40336145	     15.24485384	     41.56534996	     86.29402020	      0.00000000	      0.00000000	     89.96518371	    -13.75911859	     18.92625927	     48.03691451	     85.68761631	      0.00000000	      0.00000000
      4.98500000	    -27.38206918	     13.15399237	     -3.38472001	     -0.30031733	      0.86770817	     -1.05460443	     31.83701958	    -20.04228027	      2.08111953	    113.94735314	      1.98875649	    -20.63830980	      0.00000000	      0.00000000	     66.41280684	      7.87686913	    -19.45175539	     64.15368137	      1.11969297	     25.29504349	      0.00000000	      0.00000000	     -5.05963962	    -19.75219047	     -0.33024083	     89.95154098	     -8.40052037	     15.27036685	     41.52863254	     86.29519399	      0.00000000	      0.00000000	     89.96507989	    -13.75205252	     18.97905970	     47.97580626	     85.68786313	      0.00000000	      0.00000000
